<?xml version="1.0" encoding="UTF-8"?>
<svg version="1.1" xmlns="http://www.w3.org/2000/svg" width="1000" height="1000">
<path d="M0 0 C231 0 462 0 700 0 C700 33 700 66 700 100 C732.67 100 765.34 100 799 100 C799 370.27 799 640.54 799 919 C502.33 919 205.66 919 -100 919 C-100 813.73 -100 708.46 -100 600 C-133 600 -166 600 -200 600 C-200 567 -200 534 -200 500 C-167 500 -134 500 -100 500 C-100 368 -100 236 -100 100 C-67 100 -34 100 0 100 C0 67 0 34 0 0 Z " fill="#0C782B" transform="translate(201,81)"/>
<path d="M0 0 C32.67 0 65.34 0 99 0 C99 270.27 99 540.54 99 819 C66.33 819 33.66 819 0 819 C0 548.73 0 278.46 0 0 Z " fill="#000000" transform="translate(901,181)"/>
<path d="M0 0 C99 0 198 0 300 0 C300 66 300 132 300 200 C135 200 -30 200 -200 200 C-200 167 -200 134 -200 100 C-134 100 -68 100 0 100 C0 67 0 34 0 0 Z " fill="#E5B002" transform="translate(201,481)"/>
<path d="M0 0 C231 0 462 0 700 0 C700 33 700 66 700 100 C469 100 238 100 0 100 C0 67 0 34 0 0 Z " fill="#000000" transform="translate(201,81)"/>
<path d="M0 0 C33 0 66 0 100 0 C100 66 100 132 100 200 C133 200 166 200 200 200 C200 233 200 266 200 300 C167 300 134 300 100 300 C100 333 100 366 100 400 C67 400 34 400 0 400 C0 268 0 136 0 0 Z " fill="#000000" transform="translate(101,181)"/>
<path d="M0 0 C33 0 66 0 100 0 C100 105.27 100 210.54 100 319 C67 319 34 319 0 319 C0 213.73 0 108.46 0 0 Z " fill="#000000" transform="translate(101,681)"/>
<path d="M0 0 C99 0 198 0 300 0 C300 33 300 66 300 100 C201 100 102 100 0 100 C0 67 0 34 0 0 Z " fill="#DEAF04" transform="translate(1,581)"/>
<path d="M0 0 C33 0 66 0 100 0 C100 33 100 66 100 100 C67 100 34 100 0 100 C0 67 0 34 0 0 Z " fill="#000000" transform="translate(1,581)"/>
<path d="M0 0 C33 0 66 0 100 0 C100 33 100 66 100 100 C67 100 34 100 0 100 C0 67 0 34 0 0 Z " fill="#EDB200" transform="translate(201,481)"/>
<path d="M0 0 C33 0 66 0 100 0 C100 33 100 66 100 100 C67 100 34 100 0 100 C0 67 0 34 0 0 Z " fill="#000000" transform="translate(601,381)"/>
<path d="M0 0 C33 0 66 0 100 0 C100 33 100 66 100 100 C67 100 34 100 0 100 C0 67 0 34 0 0 Z " fill="#0A6624" transform="translate(701,281)"/>
<path d="M0 0 C33 0 66 0 100 0 C100 33 100 66 100 100 C67 100 34 100 0 100 C0 67 0 34 0 0 Z " fill="#0A6624" transform="translate(301,281)"/>
<path d="M0 0 C33 0 66 0 100 0 C100 33 100 66 100 100 C67 100 34 100 0 100 C0 67 0 34 0 0 Z " fill="#0A6624" transform="translate(801,181)"/>
<path d="M0 0 C33 0 66 0 100 0 C100 33 100 66 100 100 C67 100 34 100 0 100 C0 67 0 34 0 0 Z " fill="#0A6624" transform="translate(201,181)"/>
</svg>
